<?xml version="1.0" encoding="UTF-8" standalone="no"?>
<svg
   xmlns:dc="http://purl.org/dc/elements/1.1/"
   xmlns:cc="http://creativecommons.org/ns#"
   xmlns:rdf="http://www.w3.org/1999/02/22-rdf-syntax-ns#"
   xmlns:svg="http://www.w3.org/2000/svg"
   xmlns="http://www.w3.org/2000/svg"
   xmlns:sodipodi="http://sodipodi.sourceforge.net/DTD/sodipodi-0.dtd"
   xmlns:inkscape="http://www.inkscape.org/namespaces/inkscape"
   version="1.1"
   id="Layer_1"
   x="0px"
   y="0px"
   viewBox="0 0 32 32"
   xml:space="preserve"
   sodipodi:docname="favicon.svg"
   width="32"
   height="32"
   inkscape:version="1.0.2 (1.0.2+r75+1)"
   inkscape:export-filename="/home/borneo/Web Developer/Xandarch-website/public/svg/favicon.png"
   inkscape:export-xdpi="1.5472562"
   inkscape:export-ydpi="1.5472562"><metadata
   id="metadata84"><rdf:RDF><cc:Work
       rdf:about=""><dc:format>image/svg+xml</dc:format><dc:type
         rdf:resource="http://purl.org/dc/dcmitype/StillImage" /><dc:title /></cc:Work></rdf:RDF></metadata><defs
   id="defs82" /><sodipodi:namedview
   pagecolor="#ffffff"
   bordercolor="#666666"
   borderopacity="1"
   objecttolerance="10"
   gridtolerance="10"
   guidetolerance="10"
   inkscape:pageopacity="0"
   inkscape:pageshadow="2"
   inkscape:window-width="1366"
   inkscape:window-height="700"
   id="namedview80"
   showgrid="false"
   inkscape:zoom="10.717087"
   inkscape:cx="35.670298"
   inkscape:cy="19.017441"
   inkscape:window-x="0"
   inkscape:window-y="0"
   inkscape:window-maximized="1"
   inkscape:current-layer="Layer_1"
   inkscape:document-rotation="0" />
<style
   type="text/css"
   id="style2">
	.st0{fill:#0F1031;}
	.st1{fill:#FFFFFF;}
	.st2{fill:none;stroke:#EE1D57;stroke-width:0.8629;stroke-miterlimit:10;}
	.st3{fill:none;stroke:#EE1D57;stroke-width:0.6101;stroke-miterlimit:10;}
	.st4{fill:#EDEDED;}
</style>














<circle
   style="fill:#ffffff;stroke:none;stroke-width:0.315066"
   id="path937"
   cx="16"
   cy="16"
   r="15.5" /><path
   id="XMLID_3_"
   class="st0"
   d="m 23.215089,24.944338 c -0.242604,-0.01011 -0.485208,-0.08064 -0.667162,-0.231856 -0.01011,-0.01011 -0.02022,-0.01011 -0.03032,-0.02016 -0.192062,-0.15121 -0.232498,-0.352824 -0.212279,-0.594758 0.03032,-0.504032 0.111192,-1.391129 0.03032,-1.895162 -0.05055,-0.352821 -0.60651,-0.453628 -0.929982,-0.614919 -0.748031,-0.362904 -1.435409,-0.866936 -1.708338,-1.68347 -0.161738,-0.483872 -0.212279,-1.008066 -0.121302,-1.512098 0.08087,-0.463708 0.293146,-0.897178 0.646942,-1.209678 0.03032,-0.03024 0.07076,-0.06047 0.09099,-0.100802 0.02022,-0.04033 0.03032,-0.09073 0,-0.120968 -0.02022,-0.03023 -0.06064,-0.05042 -0.101083,-0.06048 -0.202171,-0.05041 -0.394231,-0.09073 -0.586294,-0.171372 -0.212279,-0.08064 -0.414449,-0.181452 -0.606509,-0.302419 -0.404342,-0.262096 -0.74803,-0.63508 -0.970418,-1.058467 -0.525642,-1.038308 -0.272929,-2.328631 0.262821,-3.296374 0.4751,-0.856856 1.243347,-1.572581 2.10257,-2.056453 0.303252,-0.1713645 0.616616,-0.3124932 0.940089,-0.4233803 0.283038,-0.1008059 0.576185,-0.1814517 0.869331,-0.2721778 0.101084,-0.030241 0.272929,-0.080645 0.323473,-0.181451 0.02022,-0.050403 0.02022,-0.100807 0.02022,-0.1512099 -0.02022,-0.4939521 -0.04043,-0.9778231 -0.04043,-1.4717753 0,-0.2217741 0.02022,-0.4233875 0.161736,-0.6149199 0.242605,-0.3225805 0.707594,-0.4133065 1.091719,-0.362903 0.384124,0.050403 0.808681,0.2318547 0.950199,0.6250005 0.07076,0.2016127 0.08087,0.423387 0.06064,0.6350809 -0.01011,0.1612902 -0.04044,0.3225806 -0.06064,0.4838709 -0.01011,0.080646 -0.02022,0.1713714 -0.02022,0.2520161 0,0.070564 -0.01011,0.1411296 0.03032,0.211694 0.07076,0.1108867 0.394232,-0.01008 0.485208,-0.030241 0.687381,-0.1209679 1.394975,-0.1310483 2.072246,0.020162 0.808681,0.1713706 0.980524,1.3709688 0.576185,1.9657268 -0.353799,0.534275 -0.495318,0.362903 -1.041176,0.282258 -0.475102,-0.07057 -1.50617,-0.09074 -1.981268,0.02016 -0.111195,0.03024 -0.262821,0.08064 -0.272932,0.211692 -0.06064,1.159276 -0.09099,2.318551 -0.141518,3.477826 0,0.08064 0.03032,0.100812 0.111195,0.110887 0.646945,0.05042 1.142261,0.635081 1.041175,1.280243 -0.08087,0.483872 -0.495318,0.866934 -0.970416,0.947581 -0.04044,0.01011 -0.09099,0.01011 -0.131411,0.03024 -0.101083,0.05042 -0.09098,0.231856 -0.08087,0.322581 0.03032,0.695565 0.01011,1.391131 0.01011,2.086696 0,0.252016 0.606511,-0.110886 0.697487,-0.15121 0.293146,-0.151209 0.586293,-0.312501 0.87944,-0.463711 0.272932,-0.141127 0.566077,-0.332661 0.879441,-0.272177 0.768246,0.14113 0.899656,1.139114 0.576185,1.713711 -0.323473,0.574596 -0.919875,0.92742 -1.526385,1.149194 -0.303256,0.110888 -0.616619,0.201613 -0.919874,0.29234 -0.232496,0.07057 -0.616619,0.08064 -0.616619,0.383064 0,0.584677 0.01011,1.159275 0.03032,1.743952 0.03032,0.715726 -0.596404,1.108871 -1.202914,1.078629 z M 21.860548,14.89393 c 0.363908,0.01011 0.657055,-0.03024 0.657055,-0.16129 0.03032,-1.048389 0.05054,-2.096776 0.03032,-3.145164 0,-0.292338 -0.798572,0.07057 -0.899658,0.110888 -0.414447,0.161289 -0.818789,0.362903 -1.172586,0.645161 -0.394231,0.322581 -0.828898,0.826614 -0.869332,1.360888 -0.04043,0.48387 0.333581,0.806452 0.758138,0.967742 0.06065,0.02017 0.131411,0.05041 0.20217,0.06048 0.121303,0.04033 0.778356,0.151209 1.293889,0.161289 z m 0.323473,4.49597 c 0.161736,-0.02016 0.232496,-0.171372 0.242605,-0.322581 0.02022,-0.292339 0,-0.584678 0.01011,-0.866937 0,-0.302418 0,-0.60484 0.01011,-0.907258 0,-0.04033 -0.161735,0.03024 -0.171844,0.04033 -0.08087,0.04033 -0.151627,0.09073 -0.222386,0.141127 -0.181955,0.131049 -0.374017,0.312501 -0.464992,0.524194 -0.08087,0.191533 -0.14152,0.383066 -0.131411,0.594759 0,0.17137 0.04043,0.342743 0.131411,0.483872 0.111194,0.171372 0.283037,0.282259 0.485207,0.312501 0.04044,0 0.08087,0.01011 0.111194,0 z M 10.710862,18.190302 c 0.06065,-0.0504 0.151628,-0.161289 0.232497,-0.151209 0.05054,0.01011 0.101083,0.05042 0.13141,0.08064 1.192804,1.08871 2.405825,2.157258 3.608738,3.225807 0.363906,0.322582 0.717704,0.725808 1.122043,1.008066 0.202172,0.151209 0.464993,0.141132 0.677272,0.01011 0.13141,-0.08064 0.222386,-0.201613 0.323472,-0.322582 0.14152,-0.181451 0.272929,-0.393145 0.242605,-0.614919 -0.01011,-0.131049 -0.08087,-0.252017 -0.161736,-0.362904 -0.131412,-0.181452 -0.293146,-0.332661 -0.464993,-0.483872 -0.181951,-0.151208 -0.363905,-0.302419 -0.535752,-0.453629 -0.384122,-0.352822 -0.788463,-0.695564 -1.182693,-1.048386 -0.788464,-0.695566 -1.566819,-1.401212 -2.314849,-2.137099 -0.02022,-0.02016 -0.04044,-0.07057 -0.02022,-0.09073 0.05054,-0.06048 0.101083,-0.131048 0.161736,-0.171371 l 4.619589,-3.679435 c 0.07076,-0.08064 0.141518,-0.16129 0.181953,-0.252017 0.111194,-0.241933 -0.01011,-0.504031 -0.161735,-0.695564 -0.262823,-0.332661 -0.525642,-0.725807 -0.9502,-0.866936 -0.454884,-0.141129 -0.717705,0.151211 -1.041178,0.413306 l -4.427528,3.538308 c -0.07076,0.110888 -0.262821,0.13105 -0.343688,0.06048 L 5.1815054,10.39796 C 4.898468,10.125783 4.6255373,9.9140884 4.2110891,9.9745725 3.857291,10.014903 3.5540359,10.256832 3.4529508,10.589493 c -0.030324,0.09073 -0.040432,0.191531 -0.040432,0.292338 0.020216,0.32258 0.2324965,0.504033 0.4548833,0.695565 0.7581373,0.635081 1.4758424,1.330645 2.2036543,1.995969 1.0007426,0.917338 2.0419196,1.784274 3.0123367,2.741937 0.020216,0.02016 0.040433,0.04033 0.040433,0.07057 0,0.04033 -0.030324,0.07057 -0.060646,0.100802 -0.010111,0.01011 -0.020216,0.01011 -0.020216,0.02016 -1.5668197,1.290322 -3.1942892,2.530243 -4.7813256,3.790325 -0.1010852,0.08064 -0.2122788,0.161288 -0.2830384,0.262094 -0.3436893,0.463713 -0.3234717,0.897181 -0.1213017,1.411294 0.151628,0.393145 0.4548823,0.836693 0.9400909,0.735887 0.2729297,-0.06048 0.4649919,-0.272178 0.6974875,-0.413308 z"
   style="stroke-width:0.100945"
   sodipodi:nodetypes="ccccccsccscscccccccccscsccsscccccccccccscscccsscscccccccccccccccccccccccccccccccccccccccccccccccccccssccccccc" />

</svg>
