<?xml version="1.0" encoding="UTF-8" standalone="no"?>
<svg
   xmlns:dc="http://purl.org/dc/elements/1.1/"
   xmlns:cc="http://creativecommons.org/ns#"
   xmlns:rdf="http://www.w3.org/1999/02/22-rdf-syntax-ns#"
   xmlns:svg="http://www.w3.org/2000/svg"
   xmlns="http://www.w3.org/2000/svg"
   xmlns:sodipodi="http://sodipodi.sourceforge.net/DTD/sodipodi-0.dtd"
   xmlns:inkscape="http://www.inkscape.org/namespaces/inkscape"
   version="1.1"
   id="Layer_1"
   x="0px"
   y="0px"
   viewBox="0 0 600 190"
   xml:space="preserve"
   sodipodi:docname="XA_logo.svg"
   width="600"
   height="190"
   inkscape:version="1.0.2 (1.0.2+r75+1)"><metadata
   id="metadata84"><rdf:RDF><cc:Work
       rdf:about=""><dc:format>image/svg+xml</dc:format><dc:type
         rdf:resource="http://purl.org/dc/dcmitype/StillImage" /><dc:title /></cc:Work></rdf:RDF></metadata><defs
   id="defs82" /><sodipodi:namedview
   pagecolor="#ffffff"
   bordercolor="#666666"
   borderopacity="1"
   objecttolerance="10"
   gridtolerance="10"
   guidetolerance="10"
   inkscape:pageopacity="0"
   inkscape:pageshadow="2"
   inkscape:window-width="1366"
   inkscape:window-height="700"
   id="namedview80"
   showgrid="false"
   inkscape:zoom="1.3594698"
   inkscape:cx="268.91685"
   inkscape:cy="155.09034"
   inkscape:window-x="0"
   inkscape:window-y="0"
   inkscape:window-maximized="1"
   inkscape:current-layer="Layer_1"
   inkscape:document-rotation="0" />
<style
   type="text/css"
   id="style2">
	.st0{fill:#0F1031;}
	.st1{fill:#FFFFFF;}
	.st2{fill:none;stroke:#EE1D57;stroke-width:0.8629;stroke-miterlimit:10;}
	.st3{fill:none;stroke:#EE1D57;stroke-width:0.6101;stroke-miterlimit:10;}
	.st4{fill:#EDEDED;}
</style>














<path
   id="XMLID_3_"
   class="st0"
   d="m 204.23979,189.98324 c -2.50217,-0.10397 -5.00434,-0.83176 -6.88097,-2.39131 -0.10426,-0.10396 -0.20852,-0.10396 -0.31277,-0.20793 -1.98089,-1.55955 -2.39792,-3.63895 -2.1894,-6.13422 0.31277,-5.19849 1.14683,-14.34784 0.31277,-19.54633 -0.52129,-3.63894 -6.25543,-4.67864 -9.59166,-6.34216 -7.71503,-3.74292 -14.80452,-8.9414 -17.61946,-17.36297 -1.66812,-4.99055 -2.1894,-10.39698 -1.25109,-15.59547 0.83406,-4.78261 3.02346,-9.25332 6.67246,-12.47638 0.31277,-0.31191 0.7298,-0.62381 0.93831,-1.03969 0.20852,-0.41589 0.31278,-0.93574 0,-1.24765 -0.20851,-0.3119 -0.62554,-0.51984 -1.04257,-0.62381 -2.08514,-0.51986 -4.06603,-0.93574 -6.04691,-1.76749 -2.1894,-0.83176 -4.27455,-1.87146 -6.25543,-3.11909 -4.17029,-2.703222 -7.71503,-6.550106 -10.00869,-10.916839 -5.42137,-10.708892 -2.81494,-24.017031 2.71069,-33.998135 4.90008,-8.837435 12.82363,-16.219293 21.68549,-21.209845 3.12771,-1.767487 6.35968,-3.223065 9.69591,-4.366733 2.9192,-1.039699 5.94266,-1.871457 8.96612,-2.807185 1.04257,-0.31191 2.81494,-0.831759 3.33623,-1.871457 0.20851,-0.519849 0.20851,-1.039699 0.20851,-1.559548 -0.20851,-5.094521 -0.41703,-10.085073 -0.41703,-15.179596 0,-2.2873358 0.20852,-4.3667319 1.66812,-6.3421587 2.50217,-3.32703469 7.298,-4.26276318 11.25977,-3.74291402 3.96178,0.51984916 8.34058,2.39130612 9.80018,6.44612962 0.7298,2.0793961 0.83405,4.3667331 0.62554,6.5500991 -0.10426,1.663517 -0.41703,3.327035 -0.62554,4.990552 -0.10426,0.831759 -0.20852,1.767487 -0.20852,2.599245 0,0.72779 -0.10425,1.455579 0.31277,2.183367 0.7298,1.143668 4.06603,-0.10397 5.00435,-0.31191 7.08949,-1.247638 14.38749,-1.351607 21.37272,0.20794 8.34057,1.767488 10.11294,14.139898 5.94266,20.274118 -3.64901,5.5104 -5.10861,3.742914 -10.73849,2.911155 -4.90009,-0.727789 -15.53432,-0.935728 -20.43441,0.20794 -1.14683,0.311909 -2.71068,0.831758 -2.81494,2.183366 -0.62554,11.95653 -0.93832,23.913062 -1.4596,35.869592 0,0.831758 0.31277,1.039698 1.14683,1.143668 6.67246,0.519849 11.78106,6.550099 10.73849,13.204168 -0.83406,4.990561 -5.10861,8.941401 -10.00869,9.773161 -0.41703,0.10397 -0.93832,0.10397 -1.35535,0.31191 -1.04257,0.51985 -0.93831,2.39131 -0.83405,3.32704 0.31277,7.17392 0.10425,14.34783 0.10425,21.52176 0,2.59924 6.25543,-1.14367 7.19375,-1.55955 3.02346,-1.55955 6.04691,-3.22307 9.07037,-4.78262 2.81495,-1.45557 5.8384,-3.431 9.07038,-2.80718 7.92354,1.45558 9.27888,11.74859 5.94265,17.67487 -3.33622,5.92628 -9.4874,9.56522 -15.74283,11.85256 -3.12771,1.14367 -6.35968,2.07939 -9.4874,3.01513 -2.39791,0.72778 -6.35969,0.83176 -6.35969,3.95085 0,6.03025 0.10426,11.95653 0.31277,17.98678 0.31278,7.38186 -6.15117,11.43668 -12.4066,11.12477 z M 190.26933,86.325319 c 3.75326,0.10397 6.77672,-0.311909 6.77672,-1.663516 0.31277,-10.812864 0.52128,-21.625726 0.31277,-32.438589 0,-3.015125 -8.23632,0.727789 -9.27889,1.143669 -4.27454,1.663517 -8.44483,3.742914 -12.09383,6.654069 -4.06603,3.327034 -8.54909,8.525527 -8.96612,14.035927 -0.41703,4.990553 3.44049,8.317587 7.81929,9.981105 0.62554,0.207939 1.35534,0.519848 2.08514,0.623819 1.25109,0.415878 8.02781,1.559546 13.34492,1.663516 z m 3.33623,46.370551 c 1.66812,-0.20795 2.39792,-1.76749 2.50217,-3.32704 0.20852,-3.01513 0,-6.03025 0.10426,-8.94141 0,-3.11909 0,-6.23819 0.10426,-9.35728 0,-0.41588 -1.66812,0.31191 -1.77238,0.41588 -0.83405,0.41588 -1.56385,0.93573 -2.29365,1.45558 -1.87663,1.3516 -3.85752,3.22306 -4.79583,5.40643 -0.83406,1.97543 -1.4596,3.95085 -1.35535,6.13421 0,1.76749 0.41703,3.53499 1.35535,4.99056 1.14683,1.76749 2.9192,2.91116 5.00434,3.22307 0.41703,0 0.83406,0.10397 1.14683,0 z M 75.273675,120.32346 c 0.625543,-0.51986 1.563858,-1.66352 2.397915,-1.55955 0.521286,0.10397 1.042572,0.51984 1.355343,0.83176 12.302346,11.22874 24.813207,22.24954 37.219807,33.27034 3.75326,3.32704 7.40226,7.48583 11.57255,10.39699 2.08514,1.55954 4.79583,1.45558 6.98523,0.10396 1.35534,-0.83175 2.29366,-2.07939 3.33623,-3.32703 1.4596,-1.87145 2.81494,-4.05483 2.50217,-6.34216 -0.10426,-1.35161 -0.83406,-2.59924 -1.66812,-3.74291 -1.35534,-1.87146 -3.02345,-3.43101 -4.79583,-4.99056 -1.87662,-1.55954 -3.75325,-3.11909 -5.52563,-4.67864 -3.96177,-3.63894 -8.13205,-7.17391 -12.19808,-10.81286 -8.13206,-7.17392 -16.15986,-14.45181 -23.874895,-22.0416 -0.208514,-0.20795 -0.417029,-0.72779 -0.208514,-0.93574 0.521285,-0.62381 1.042572,-1.3516 1.668115,-1.76748 L 141.68549,66.778991 c 0.7298,-0.831759 1.4596,-1.663517 1.87663,-2.599245 1.14683,-2.495276 -0.10426,-5.198492 -1.66811,-7.173919 -2.71069,-3.431005 -5.42138,-7.485828 -9.80018,-8.941405 -4.69157,-1.455578 -7.40226,1.559547 -10.73849,4.262762 L 75.690704,88.820595 c -0.7298,1.143668 -2.710687,1.351608 -3.544744,0.623819 L 18.245004,39.954774 C 15.325804,37.147589 12.51086,34.964222 8.2363162,35.588041 4.5873154,36.003921 1.4596003,38.499197 0.41702867,41.930202 0.10425717,42.86593 0,43.905628 0,44.945327 c 0.20851434,3.327034 2.3979149,5.198491 4.6915725,7.173918 7.8192875,6.5501 15.2215465,13.724017 22.7280625,20.586026 10.32146,9.461256 21.059948,18.402661 31.068636,28.279799 0.208514,0.20794 0.417029,0.41588 0.417029,0.72779 0,0.41588 -0.312772,0.72779 -0.625543,1.0397 -0.104257,0.10397 -0.208515,0.10397 -0.208515,0.20793 -16.159861,13.30814 -32.945265,26.09643 -49.3136399,39.09266 -1.0425717,0.83176 -2.1894005,1.66352 -2.9192007,2.70321 -3.5447437,4.78262 -3.3362294,9.25332 -1.251086,14.55578 1.5638575,4.05482 4.6915725,8.6295 9.6959166,7.5898 2.814943,-0.62382 4.79583,-2.80719 7.193745,-4.26277 z M 300.15639,63.867836 308.28844,49.935879 h 7.71504 l -11.67681,19.026478 11.88532,19.338389 h -7.81929 l -8.23631,-14.035927 -8.34058,14.139897 h -7.81929 L 295.9861,69.066327 284.3093,50.039848 h 7.71503 z m 47.01998,15.595474 h -14.90878 l -3.12771,8.941406 h -6.98523 l 14.596,-38.468837 h 6.04692 l 14.596,38.468837 h -6.98523 z m -13.03215,-5.406431 h 11.15552 l -5.62989,-16.011353 z m 62.45005,14.347837 h -6.67246 L 372.71937,61.16462 v 27.240096 h -6.67245 V 49.935879 h 6.67245 l 17.20244,27.344065 V 49.935879 h 6.67246 z m 12.30234,0 V 49.935879 h 11.36403 c 3.44049,0 6.46395,0.727788 9.07038,2.287335 2.60643,1.559548 4.69157,3.638945 6.15117,6.446131 1.4596,2.807184 2.1894,5.926279 2.1894,9.565224 v 1.871457 c 0,3.638944 -0.7298,6.862008 -2.1894,9.565225 -1.4596,2.807185 -3.54474,4.886581 -6.25543,6.342159 -2.71069,1.455577 -5.73414,2.287336 -9.27889,2.287336 h -11.05126 z m 6.67246,-33.062407 v 27.759946 h 4.3788 c 3.54475,0 6.25543,-1.143669 8.13206,-3.327035 1.87663,-2.183367 2.81494,-5.302462 2.9192,-9.461255 v -2.183366 c 0,-4.158794 -0.93831,-7.381858 -2.71069,-9.565225 -1.77237,-2.183366 -4.48305,-3.327034 -7.92354,-3.327034 h -4.79583 z m 54.10947,24.121001 h -14.90877 l -3.12772,8.941406 h -6.98523 l 14.596,-38.468837 h 6.04692 l 14.596,38.468837 h -6.98523 z m -13.03215,-5.406431 h 11.15552 l -5.62989,-15.907384 z m 46.08167,-0.519849 h -7.50651 v 14.763716 h -6.67246 V 49.831908 h 13.55343 c 4.48306,0 7.92354,1.039699 10.32146,3.015125 2.39791,1.975427 3.649,4.886583 3.649,8.629496 0,2.599246 -0.62554,4.678643 -1.87663,6.446131 -1.25109,1.767486 -3.02346,3.119095 -5.21286,4.054823 l 8.65335,16.011354 v 0.311909 h -7.19375 z m -7.40226,-5.302461 h 6.88098 c 2.29365,0 4.06603,-0.51985 5.31711,-1.663518 1.25109,-1.143667 1.87663,-2.703215 1.87663,-4.678642 0,-2.079396 -0.62554,-3.638944 -1.77237,-4.782612 -1.14683,-1.143669 -2.9192,-1.663518 -5.21286,-1.767488 h -7.08949 z m 60.88619,7.589797 c -0.41703,4.054824 -1.87663,7.277889 -4.58732,9.565225 -2.71068,2.287336 -6.15117,3.431004 -10.52997,3.431004 -3.02346,0 -5.73414,-0.727789 -8.13206,-2.183366 -2.39791,-1.455578 -4.17029,-3.534974 -5.42137,-6.23819 -1.25109,-2.703216 -1.98089,-5.822311 -1.98089,-9.357284 V 67.40281 c 0,-3.638944 0.62555,-6.862009 1.98089,-9.565225 1.25108,-2.807185 3.12771,-4.886582 5.52563,-6.342159 2.39791,-1.455578 5.21286,-2.287337 8.34057,-2.287337 4.27455,0 7.71503,1.143668 10.32146,3.431005 2.60643,2.287337 4.06603,5.510401 4.48306,9.773164 h -6.67246 c -0.31277,-2.807185 -1.14683,-4.782612 -2.39791,-6.03025 -1.25109,-1.247638 -3.23198,-1.871457 -5.73415,-1.871457 -2.9192,0 -5.1086,1.039699 -6.67246,3.223065 -1.56385,2.079397 -2.39791,5.198492 -2.39791,9.357284 v 3.431005 c 0,4.158793 0.7298,7.277889 2.1894,9.461255 1.4596,2.183367 3.649,3.327034 6.5682,3.327034 2.60643,0 4.58732,-0.623819 5.94266,-1.767486 1.35534,-1.143669 2.1894,-3.119095 2.50217,-5.926281 h 6.67246 z m 40.97307,12.58035 H 590.5126 V 71.353664 h -17.20243 v 17.051052 h -6.67246 V 49.935879 h 6.67246 V 65.947232 H 590.5126 V 49.935879 h 6.67246 z M 298.80104,125.41798 h -9.90443 l -2.1894,6.23819 h -3.23197 l 9.07037,-23.70513 h 2.71069 l 9.07037,23.70513 h -3.23197 z m -8.96611,-2.49528 h 8.0278 l -4.06603,-11.0208 z m 33.67506,-0.83176 h -5.52563 v 9.56523 h -3.12771 v -23.70513 h 7.81928 c 2.71069,0 4.69158,0.62383 6.15118,1.87146 1.4596,1.24764 2.1894,3.01513 2.1894,5.30247 0,1.45557 -0.41703,2.80718 -1.14683,3.84687 -0.7298,1.0397 -1.87663,1.87146 -3.33623,2.49528 l 5.52563,10.08508 v 0.20793 h -3.33623 z m -5.52563,-2.59924 h 4.79583 c 1.56386,0 2.81494,-0.41588 3.75326,-1.24765 0.93831,-0.83175 1.35534,-1.87145 1.35534,-3.22306 0,-1.45557 -0.41703,-2.59924 -1.35534,-3.32703 -0.83406,-0.83176 -2.08514,-1.14367 -3.75326,-1.14367 h -4.79583 z m 42.22415,4.57466 c -0.31277,2.49529 -1.25108,4.47071 -2.81494,5.82232 -1.56386,1.35161 -3.649,2.0794 -6.25543,2.0794 -2.81494,0 -5.00434,-1.0397 -6.77672,-3.01513 -1.66811,-1.97543 -2.50217,-4.67864 -2.50217,-8.00568 v -2.28733 c 0,-2.18337 0.41703,-4.1588 1.14683,-5.82231 0.83406,-1.66352 1.87663,-2.91116 3.33623,-3.84689 1.4596,-0.93573 3.12772,-1.35161 5.00435,-1.35161 2.50217,0 4.58731,0.72779 6.04691,2.0794 1.56386,1.35161 2.39792,3.32703 2.60643,5.82232 h -3.12772 c -0.31277,-1.87146 -0.83405,-3.22308 -1.77237,-4.05483 -0.93831,-0.83176 -2.1894,-1.24764 -3.75325,-1.24764 -1.98089,0 -3.54475,0.72779 -4.69158,2.18337 -1.14683,1.45557 -1.66811,3.53498 -1.66811,6.34216 v 2.28734 c 0,2.59924 0.52128,4.57466 1.56386,6.13421 1.04257,1.55955 2.60642,2.28734 4.48305,2.28734 1.77238,0 3.02346,-0.41588 3.96178,-1.14367 0.93831,-0.72779 1.56385,-2.18336 1.87662,-4.05482 h 3.33623 z m 29.81755,7.58981 h -3.12771 v -10.91684 h -11.98958 v 10.91684 h -3.12771 v -23.70513 h 3.12771 v 10.18905 h 11.98958 v -10.18905 h 3.12771 z m 16.15987,0 h -3.12772 v -23.70513 h 3.12772 z m 28.98349,-21.10588 h -7.61078 v 21.10588 h -3.12771 v -21.10588 h -7.61077 v -2.59925 h 18.34926 z m 24.29192,10.08508 h -10.32146 v 8.42155 h 11.98957 v 2.59925 h -15.11729 v -23.70513 h 14.90878 v 2.59925 h -11.78106 v 7.5898 h 10.32146 z m 30.33883,3.43099 c -0.31277,2.49529 -1.25108,4.47071 -2.81494,5.82232 -1.56386,1.35161 -3.649,2.0794 -6.25543,2.0794 -2.81494,0 -5.00434,-1.0397 -6.77672,-3.01513 -1.66811,-1.97543 -2.50217,-4.67864 -2.50217,-8.00568 v -2.28733 c 0,-2.18337 0.41703,-4.1588 1.14683,-5.82231 0.83406,-1.66352 1.87663,-2.91116 3.33623,-3.84689 1.4596,-0.93573 3.12772,-1.35161 5.00434,-1.35161 2.50218,0 4.58732,0.72779 6.04692,2.0794 1.56386,1.35161 2.39792,3.32703 2.60643,5.82232 h -3.12772 c -0.31277,-1.87146 -0.83405,-3.22308 -1.77237,-4.05483 -0.93831,-0.83176 -2.1894,-1.24764 -3.75326,-1.24764 -1.98088,0 -3.54474,0.72779 -4.69157,2.18337 -1.14683,1.45557 -1.66811,3.53498 -1.66811,6.34216 v 2.28734 c 0,2.59924 0.52128,4.57466 1.56385,6.13421 1.04258,1.55955 2.60643,2.28734 4.48306,2.28734 1.77237,0 3.02346,-0.41588 3.96178,-1.14367 0.93831,-0.72779 1.56385,-2.18336 1.87662,-4.05482 h 3.33623 z m 27.5239,-13.51607 h -7.61078 v 21.10588 h -3.12771 v -21.10588 h -7.61078 v -2.59925 h 18.34927 z m 27.52389,-2.59925 v 16.11532 c 0,2.18337 -0.7298,4.05483 -2.08515,5.51041 -1.35534,1.45557 -3.33622,2.18336 -5.62988,2.39131 h -0.83406 c -2.60643,0 -4.69157,-0.72779 -6.25543,-2.0794 -1.56386,-1.35161 -2.29366,-3.32703 -2.39791,-5.71834 v -16.11533 h 3.12771 v 16.01135 c 0,1.66353 0.52129,3.01513 1.4596,3.95087 0.93832,0.93572 2.29366,1.45557 4.06603,1.45557 1.77237,0 3.12772,-0.51985 4.06603,-1.45557 0.93831,-0.93574 1.4596,-2.28734 1.4596,-3.95087 v -16.01135 h 3.02346 z m 20.95569,14.1399 h -5.52563 v 9.56523 h -3.12772 v -23.70513 h 7.81929 c 2.71069,0 4.69157,0.62383 6.15117,1.87146 1.4596,1.24764 2.18941,3.01513 2.18941,5.30247 0,1.45557 -0.41703,2.80718 -1.14683,3.84687 -0.7298,1.0397 -1.87663,1.87146 -3.33623,2.49528 l 5.52563,10.08508 v 0.20793 h -3.33623 z m -5.52563,-2.59924 h 4.79583 c 1.56386,0 2.81494,-0.41588 3.75326,-1.24765 0.93831,-0.83175 1.35534,-1.87145 1.35534,-3.22306 0,-1.45557 -0.41703,-2.59924 -1.35534,-3.32703 -0.83406,-0.83176 -2.08515,-1.14367 -3.75326,-1.14367 h -4.79583 z m 38.05387,1.14367 h -10.32146 v 8.42155 H 600 v 2.59925 h -15.11729 v -23.70513 h 14.90878 v 2.59925 h -11.78106 v 7.5898 h 10.32146 z"
   style="stroke-width:1.04113" />

</svg>
